{
  "source": "C:\\Users\\Peter\\Desktop\\stuff\\MIUN\\quantitative_research\\video_compression\\videos\\BVI-HD\\BVI-HD_CDVL_videos\\ORIG\\ParkPlay_1920x1080_50fps.mp4",
  "output": "C:\\Users\\Peter\\Desktop\\stuff\\MIUN\\quantitative_research\\video_compression\\compressed_videos\\BVI-HD\\h264\\2.5\\ParkPlay_1920x1080_50fps_h264.mp4",
  "codec": "h264",
  "ok": "Input #0, mov,mp4,m4a,3gp,3g2,mj2, from 'C:\\Users\\Peter\\Desktop\\stuff\\MIUN\\quantitative_research\\video_compression\\videos\\BVI-HD\\BVI-HD_CDVL_videos\\ORIG\\ParkPlay_1920x1080_50fps.mp4':\n  Metadata:\n    major_brand     : isom\n    minor_version   : 512\n    compatible_brands: isomiso2avc1mp41\n    encoder         : Lavf54.28.101\n  Duration: 00:00:05.00, start: 0.000000, bitrate: 620563 kb/s\n  Stream #0:0[0x1](und): Video: h264 (High 4:4:4 Predictive) (avc1 / 0x31637661), yuv420p(progressive), 1920x1080, 620558 kb/s, 50 fps, 50 tbr, 50 tbn (default)\n    Metadata:\n      handler_name    : VideoHandler\n      vendor_id       : [0][0][0][0]\n[out#0/mp4 @ 000001a3e68cf740] Codec AVOption b:a (set bitrate (in bits/s)) has not been used for any stream. The most likely reason is either wrong type (e.g. a video option with no video streams) or that it is a private option of some decoder which was not actually used for any stream.\nStream mapping:\n  Stream #0:0 -> #0:0 (h264 (native) -> h264 (libx264))\nPress [q] to stop, [?] for help\n[libx264 @ 000001a3e8a60340] using cpu capabilities: MMX2 SSE2Fast SSSE3 SSE4.2 AVX FMA3 BMI2 AVX2\n[libx264 @ 000001a3e8a60340] profile High, level 5.0, 4:2:0, 8-bit\n[libx264 @ 000001a3e8a60340] 264 - core 165 r3222 b35605a - H.264/MPEG-4 AVC codec - Copyleft 2003-2025 - http://www.videolan.org/x264.html - options: cabac=1 ref=5 deblock=1:0:0 analyse=0x3:0x113 me=hex subme=8 psy=1 psy_rd=1.00:0.00 mixed_ref=1 me_range=16 chroma_me=1 trellis=2 8x8dct=1 cqm=0 deadzone=21,11 fast_pskip=1 chroma_qp_offset=-2 threads=18 lookahead_threads=3 sliced_threads=0 nr=0 decimate=1 interlaced=0 bluray_compat=0 constrained_intra=0 bframes=3 b_pyramid=2 b_adapt=1 b_bias=0 direct=3 weightb=1 open_gop=0 weightp=2 keyint=250 keyint_min=25 scenecut=40 intra_refresh=0 rc_lookahead=50 rc=cbr mbtree=1 bitrate=2500 ratetol=1.0 qcomp=0.60 qpmin=0 qpmax=69 qpstep=4 vbv_maxrate=2500 vbv_bufsize=2500 nal_hrd=none filler=0 ip_ratio=1.40 aq=1:1.00\nOutput #0, mp4, to 'C:\\Users\\Peter\\Desktop\\stuff\\MIUN\\quantitative_research\\video_compression\\compressed_videos\\BVI-HD\\h264\\2.5\\ParkPlay_1920x1080_50fps_h264.mp4':\n  Metadata:\n    major_brand     : isom\n    minor_version   : 512\n    compatible_brands: isomiso2avc1mp41\n    encoder         : Lavf62.3.100\n  Stream #0:0(und): Video: h264 (avc1 / 0x31637661), yuv420p(tv, progressive), 1920x1080, q=2-31, 2500 kb/s, 50 fps, 12800 tbn (default)\n    Metadata:\n      encoder         : Lavc62.11.100 libx264\n      handler_name    : VideoHandler\n      vendor_id       : [0][0][0][0]\n    Side data:\n      cpb: bitrate max/min/avg: 2500000/0/2500000 buffer size: 2500000 vbv_delay: N/A\nframe=    0 fps=0.0 q=0.0 size=       0KiB time=N/A bitrate=N/A speed=N/A elapsed=0:00:01.10    \nframe=    0 fps=0.0 q=0.0 size=       0KiB time=N/A bitrate=N/A speed=N/A elapsed=0:00:01.68    \nframe=    0 fps=0.0 q=0.0 size=       0KiB time=N/A bitrate=N/A speed=N/A elapsed=0:00:02.26    \nframe=    8 fps=2.8 q=46.0 size=       0KiB time=00:00:00.04 bitrate=   9.6kbits/s speed=0.0139x elapsed=0:00:02.87    \nframe=   27 fps=7.7 q=45.0 size=       0KiB time=00:00:00.40 bitrate=   1.0kbits/s speed=0.114x elapsed=0:00:03.50    \nframe=   51 fps= 12 q=45.0 size=     256KiB time=00:00:00.78 bitrate=2689.1kbits/s speed=0.189x elapsed=0:00:04.12    \nframe=   72 fps= 15 q=45.0 size=     256KiB time=00:00:01.28 bitrate=1638.7kbits/s speed=0.269x elapsed=0:00:04.76    \nframe=   91 fps= 17 q=45.0 size=     256KiB time=00:00:01.70 bitrate=1233.8kbits/s speed=0.312x elapsed=0:00:05.45    \nframe=  111 fps= 18 q=44.0 size=     512KiB time=00:00:02.12 bitrate=1978.6kbits/s speed=0.344x elapsed=0:00:06.16    \nframe=  131 fps= 19 q=44.0 size=     512KiB time=00:00:02.52 bitrate=1664.6kbits/s speed=0.372x elapsed=0:00:06.78    \nframe=  151 fps= 20 q=44.0 size=     768KiB time=00:00:02.96 bitrate=2125.6kbits/s speed=0.402x elapsed=0:00:07.36    \nframe=  173 fps= 22 q=44.0 size=     768KiB time=00:00:03.36 bitrate=1872.6kbits/s speed=0.421x elapsed=0:00:07.97    \nframe=  206 fps= 24 q=43.0 size=    1024KiB time=00:00:03.94 bitrate=2129.2kbits/s speed=0.458x elapsed=0:00:08.60    \nframe=  236 fps= 26 q=-1.0 size=    1024KiB time=00:00:04.62 bitrate=1815.8kbits/s speed=0.502x elapsed=0:00:09.19    \n[mp4 @ 000001a3e68cf840] Starting second pass: moving the moov atom to the beginning of the file\n[out#0/mp4 @ 000001a3e68cf740] video:1361KiB audio:0KiB subtitle:0KiB other streams:0KiB global headers:0KiB muxing overhead: 0.277976%\nframe=  250 fps= 27 q=-1.0 Lsize=    1365KiB time=00:00:04.96 bitrate=2254.6kbits/s speed=0.528x elapsed=0:00:09.40    \n[libx264 @ 000001a3e8a60340] frame I:1     Avg QP:41.64  size: 33077\n[libx264 @ 000001a3e8a60340] frame P:63    Avg QP:43.69  size: 11424\n[libx264 @ 000001a3e8a60340] frame B:186   Avg QP:47.15  size:  3443\n[libx264 @ 000001a3e8a60340] consecutive B-frames:  0.8%  0.0%  0.0% 99.2%\n[libx264 @ 000001a3e8a60340] mb I  I16..4: 45.4% 50.0%  4.6%\n[libx264 @ 000001a3e8a60340] mb P  I16..4:  5.7%  3.7%  0.1%  P16..4: 30.7%  3.0%  5.4%  0.0%  0.0%    skip:51.3%\n[libx264 @ 000001a3e8a60340] mb B  I16..4:  0.1%  0.1%  0.0%  B16..8: 40.6%  0.6%  0.0%  direct: 0.2%  skip:58.3%  L0:40.8% L1:58.9% BI: 0.3%\n[libx264 @ 000001a3e8a60340] 8x8 transform intra:41.2% inter:80.5%\n[libx264 @ 000001a3e8a60340] direct mvs  spatial:94.6% temporal:5.4%\n[libx264 @ 000001a3e8a60340] coded y,uvDC,uvAC intra: 17.1% 35.5% 5.5% inter: 1.6% 3.8% 0.0%\n[libx264 @ 000001a3e8a60340] i16 v,h,dc,p: 27% 26%  8% 39%\n[libx264 @ 000001a3e8a60340] i8 v,h,dc,ddl,ddr,vr,hd,vl,hu:  4%  3% 14% 13% 18% 11% 16%  9% 11%\n[libx264 @ 000001a3e8a60340] i4 v,h,dc,ddl,ddr,vr,hd,vl,hu:  2%  3%  6% 14% 20% 11% 18%  8% 18%\n[libx264 @ 000001a3e8a60340] i8c dc,h,v,p: 65% 19% 10%  6%\n[libx264 @ 000001a3e8a60340] Weighted P-Frames: Y:1.6% UV:1.6%\n[libx264 @ 000001a3e8a60340] ref P L0: 66.7%  4.1% 18.2%  5.3%  5.6%  0.1%\n[libx264 @ 000001a3e8a60340] ref B L0: 92.5%  5.6%  1.4%  0.5%\n[libx264 @ 000001a3e8a60340] ref B L1: 97.7%  2.3%\n[libx264 @ 000001a3e8a60340] kb/s:2229.19\n",
  "seconds": 9.8318510055542,
  "probe_out": {}
}